<svg width="733" height="120" viewBox="0 0 733 120" fill="none" xmlns="http://www.w3.org/2000/svg">
<path d="M131.627 20.0478C131.147 23.1861 131.316 26.183 130.723 29.2365C130.412 30.8763 129.592 32.1768 129.252 33.7601C128.885 35.5696 128.913 37.8031 128.97 39.5843C129.224 45.7195 128.206 51.9395 128.489 58.103C128.63 61.2695 128.404 64.4644 128.546 67.6309C128.687 71.0519 128.941 74.5577 128.998 77.9222C129.055 80.9191 129.394 83.6333 129.733 86.6019C129.874 87.9025 130.129 89.2879 130.468 90.5601C130.638 91.2104 130.977 92.2 131.316 92.7654C131.684 93.4157 132.645 93.9811 132.928 94.5749C133.917 96.6388 129.026 95.9602 127.669 96.0733C126.397 96.1864 125.068 96.2995 123.796 96.1581C122.75 96.0168 119.866 96.243 119.3 94.9424C118.848 93.8681 120.205 92.7654 120.544 91.8041C121.053 90.3622 121.393 88.3266 121.591 86.7999C121.986 83.7464 121.336 80.495 121.506 77.4133C121.647 74.4446 122.128 71.2215 122.015 68.3095C121.986 67.2916 121.562 66.3869 121.562 65.3125C121.562 63.7858 121.675 62.2874 121.477 60.7889C121.025 57.4527 117.943 57.792 115.06 57.9899C113.533 58.103 112.176 58.1878 110.649 58.1313C109.603 58.103 108.331 57.8485 107.313 57.9333C106.776 57.9899 106.097 58.3574 105.503 58.4423C104.966 58.5271 103.92 58.4423 103.439 58.4423C101.969 58.3857 100.358 58.6402 98.944 58.5553C97.4738 58.4423 96.2298 58.1595 94.6748 58.1595C93.1481 58.1595 90.9711 57.4527 89.7554 58.6967C87.8611 60.6475 90.0947 63.5596 89.6706 65.8214C89.0768 69.0728 89.4726 72.1263 89.5009 75.519C89.5857 81.3432 88.7941 87.6198 91.7345 92.9633C92.1586 93.7267 93.0633 94.6597 92.6109 95.4796C92.0455 96.554 88.9637 95.8471 87.9742 95.9037C86.3626 95.9602 79.5772 97.5152 79.4924 94.8859C79.4924 94.4052 80.1709 93.8963 80.3971 93.5288C80.9625 92.5675 81.1039 91.9172 81.3866 90.8711C81.7259 89.5423 82.15 88.157 82.4045 86.7999C82.9699 84.0574 82.6024 81.2018 82.8003 78.4311C83.1678 72.8331 83.1961 67.1503 83.1961 61.5805C83.1961 56.1522 82.9699 51.0348 83.3092 45.6064C83.4223 43.6839 83.2244 42.044 82.9416 40.1498C82.7155 38.5948 83.0265 36.8984 82.7155 35.3999C82.4044 33.8167 79.5206 29.5192 80.6515 28.4166C80.5102 28.5579 82.8568 28.5862 82.8285 28.5862C83.4788 28.671 84.1008 28.8972 84.7511 28.982C86.3909 29.1799 88.1721 29.0668 89.8119 29.1234C91.5931 29.2082 91.791 28.982 91.6214 30.7915C91.48 32.4313 90.4056 33.7601 90.2643 35.3151C90.0098 38.5382 90.5187 41.9592 90.0098 45.2106C89.6988 47.0766 89.8685 48.5751 90.236 50.4411C90.6036 52.3919 91.2256 52.6181 93.0916 52.9008C96.4277 53.4097 99.8205 53.0987 103.185 53.0987C104.457 53.0987 105.645 52.9856 106.86 53.0987C108.331 53.2401 109.659 53.438 111.214 53.438C113.448 53.438 119.951 54.5689 121.364 52.5898C122.241 51.3741 121.93 48.4054 121.986 46.9918C122.071 45.2954 122.608 43.0336 122.043 41.4503C122.439 40.1498 122.043 38.7927 122.439 37.4921C122.75 36.446 122.919 36.446 122.919 35.513C122.919 33.5905 123.004 31.9789 123.428 29.9998C123.937 27.5684 124.587 25.4196 125.323 23.1013C125.916 21.207 126.142 19.341 127.019 17.475C128.659 13.9126 129.988 10.1806 132.871 7.38161C135.981 4.35643 141.721 1.98151 145.651 4.24334C147.262 5.17634 147.601 5.14806 148.054 7.12716C148.308 8.28634 148.11 9.07798 148.167 10.0675C147.884 10.322 147.828 10.6047 148.026 10.9157C148.223 11.0853 148.45 11.255 148.704 11.3681C148.874 13.121 147.743 12.6686 146.018 12.7252C143.587 12.7817 142.597 13.121 142.117 10.2089C141.89 8.71043 142.343 6.33552 140.137 6.75961C139.374 6.90098 138.356 8.14498 137.621 8.5408C136.745 8.99316 135.868 9.13453 135.19 9.89789C134.115 11.1136 133.748 13.432 133.239 14.9587C132.589 16.853 131.514 18.0687 131.627 20.1326C131.627 20.1326 131.684 20.1326 131.712 20.1326L131.627 20.0478Z" fill="white"/>
<path d="M186.334 80.8046C187.21 81.3984 187.04 84.1125 187.097 85.1586C187.154 86.7136 186.701 88.2404 186.758 89.7671C186.871 91.7745 189.048 96.0719 186.56 96.8636C185.683 97.1463 183.846 96.7222 182.856 96.6939C181.697 96.6657 180.509 96.5808 179.35 96.5808C175.901 96.5526 172.452 96.496 169.002 96.5243C161.906 96.5243 154.725 96.807 147.628 96.5808C145.536 96.5243 140.984 97.0332 142.765 93.6687C143.529 92.1986 144.405 91.3221 144.886 89.7105C145.395 87.9294 145.677 86.0916 145.96 84.2822C146.356 81.7376 146.13 79.2496 146.412 76.7333C146.837 72.9731 146.469 69.4672 146.695 65.707C147.091 59.5435 146.752 53.1538 146.78 46.9621C146.78 43.739 146.469 40.5442 146.158 37.3494C145.988 35.6813 145.677 34.72 144.688 33.3629C143.698 32.0058 142.652 31.3838 144.405 30.5073C145.564 29.9136 147.543 30.1963 148.816 30.1115C150.258 30.0267 151.728 30.2246 153.198 30.1115C156.534 29.8288 159.955 29.6026 163.32 29.7723C166.26 29.9136 169.031 29.5743 171.943 29.7723C173.385 29.8571 174.459 30.1963 175.901 30.1115C177.71 30.0267 179.52 30.1115 181.358 29.9984C182.206 29.9702 183.902 29.9702 184.637 30.4791C186.107 31.4969 185.231 32.6843 185.174 34.1545C185.061 37.0949 187.351 41.0531 185.853 43.9935C184.496 46.6511 182.291 41.0814 181.216 39.8091C179.294 37.519 177.145 35.8226 174.289 34.7765C171.886 33.8718 168.861 33.3912 166.317 33.3346C163.659 33.2781 159.729 33.0519 157.298 34.2393C154.216 35.7661 154.046 39.3002 153.848 42.2688C153.622 45.7181 153.679 49.1391 153.424 52.5884C153.17 55.8963 153.481 57.7623 157.128 57.7058C160.634 57.6492 164.846 58.0168 167.476 55.3026C168.691 54.0586 168.805 52.9277 169.144 51.3161C169.342 50.3831 169.059 49.4218 170.388 49.7611C172.791 50.4114 171.632 55.9246 171.547 57.5361C171.349 60.9006 171.886 64.4347 172.254 67.7709C172.367 68.7604 173.243 71.1353 171.773 71.5594C170.388 71.9552 170.529 69.0431 170.133 68.1101C169.511 66.6682 168.296 65.2546 167.08 64.265C165.44 62.9645 164.422 63.4169 162.528 63.1341C159.899 62.7383 155.403 60.0524 153.566 63.6713C152.774 65.1981 153.17 67.7426 153.198 69.439C153.198 71.5029 152.915 73.5668 153.057 75.6307C153.283 79.1083 153.396 82.5858 153.566 86.0634C153.65 87.6749 153.368 89.8236 154.781 90.9263C155.997 91.8593 158.202 91.8876 159.672 92.1137C163.433 92.6792 167.108 92.5661 170.84 91.9724C174.148 91.4352 177.428 91.0394 180.114 88.7775C182.8 86.544 184.241 83.5754 186.305 80.7764L186.334 80.8046Z" fill="white"/>
<path d="M71.5191 29.4844C73.2155 29.1451 75.0815 29.6258 75.6469 31.2939C76.3537 33.3578 76.1558 35.8175 73.9788 36.7505C69.9641 38.4752 66.7127 34.7149 64.8467 31.718C63.7724 29.9933 62.4153 28.6645 61.9346 26.6006C61.454 24.5932 60.4644 22.19 60.3796 20.1827C60.2383 16.8182 60.6906 12.9731 59.1639 9.75001C58.5984 8.56256 56.9586 7.43164 55.856 6.61173C53.9334 5.14155 51.5585 4.34991 49.3815 5.76355C48.1658 6.58346 46.3563 7.34683 45.5081 8.50601C44.2076 10.3437 43.4442 13.9627 43.4442 16.1397C43.4442 18.3167 43.7552 20.4371 43.5856 22.6141C43.416 24.7629 43.9531 26.8268 43.6421 28.9472C43.0484 33.1033 43.4442 37.2312 43.1332 41.4721C42.8222 45.5716 42.9919 49.8408 43.1332 53.9404C43.2746 58.8033 43.1332 63.6945 43.2463 68.5574C43.3029 70.8475 42.8222 73.1941 42.8222 75.5125C42.8222 77.9722 42.8222 80.432 42.7091 82.92C42.483 87.2457 42.483 91.628 42.6526 95.9537C42.7091 97.226 42.5678 98.7527 42.9636 99.9685C43.2463 100.845 43.8683 101.467 44.0945 102.287C44.773 104.52 44.971 106.217 46.5825 108.196C47.77 109.666 48.8443 110.938 50.6821 111.447C52.6894 111.984 55.0643 111.984 54.6403 109.242C54.4989 108.337 53.679 107.432 53.8769 106.471C54.0465 105.566 55.4884 104.238 56.3083 103.898C58.1461 103.135 60.7754 104.209 61.4257 106.075C62.9807 110.571 58.2874 113.907 54.5554 114.84C52.0957 115.462 50.4276 115.547 48.1941 114.585C46.215 113.737 44.2641 112.776 42.483 111.504C41.1541 110.542 39.3164 108.309 37.5635 108.337C35.4713 108.337 33.4639 111.136 31.7393 112.154C27.5549 114.642 22.8051 115.688 18.7338 112.239C17.8856 111.504 17.8291 110.825 17.1788 110.034C16.3872 109.044 15.8783 109.496 15.9348 107.998C16.0479 105.538 18.9883 105.312 20.4585 104.011C22.4941 103.644 23.8795 105.171 24.6146 106.98C25.2083 108.45 23.314 110.797 25.7172 110.91C26.9612 110.967 29.9016 108.422 30.5518 107.489C32.1068 105.312 31.3152 102.852 31.7676 100.562C31.9937 99.5161 32.8419 98.6962 33.0681 97.5653C33.2943 96.3495 33.2095 95.0207 33.2943 93.805C33.3791 92.5893 33.0398 91.4584 33.0681 90.2992C33.0681 89.1683 33.3226 88.1504 33.2943 86.963C33.2378 82.1001 33.4357 77.2937 33.2943 72.2894C33.1247 67.2286 33.7467 61.8568 32.955 56.8525C32.7006 55.2692 32.1917 51.9613 30.6367 54.4776C29.5057 56.3153 28.9968 59.9625 28.8272 62.1112C28.6293 64.5144 29.0534 67.0307 28.9686 69.4621C28.8837 72.1763 28.6576 74.8622 28.6858 77.6047C28.6858 79.8665 28.912 82.2132 28.912 84.4467C28.912 86.652 28.5445 89.0269 28.4597 91.2887C28.3466 93.8615 28.7424 94.5118 29.845 96.7736C30.2974 97.6784 32.644 102.004 29.8167 100.11C28.2617 99.0355 26.3109 95.6427 26.3675 93.7484C26.4523 91.2039 26.8764 88.829 27.1874 86.341C27.357 85.0404 26.8481 84.1074 26.735 82.8352C26.6219 81.4215 27.1308 80.0927 27.1026 78.6791C27.0743 76.3324 26.8198 73.5617 26.3957 71.2433C26.2261 70.3669 26.3392 69.3773 25.2931 69.3208C24.3036 69.2642 23.2575 70.593 22.8616 71.3564C22.4941 72.0915 22.4941 72.9679 22.0417 73.6748C21.3632 74.7774 20.6281 74.7774 20.4867 76.191C20.4019 77.0958 20.5998 79.3011 20.9956 80.0927C21.3915 80.9126 22.2962 81.1953 22.6072 82.0435C23.3423 83.9943 22.1831 86.0583 21.0522 87.5002C18.4228 90.8929 11.2133 90.8646 10.3933 85.8603C9.94098 83.1462 11.4394 82.8069 13.4751 81.7325C14.7191 81.054 18.027 80.1492 17.094 78.5942C15.9914 76.7282 13.051 75.8801 11.7504 74.0423C10.4499 72.2329 10.252 69.6318 10.563 67.483C10.8174 65.7301 12.2311 64.1186 13.3337 62.7615C14.5777 61.2065 18.1966 59.8494 19.9778 60.2735C21.5328 60.641 24.1339 62.4787 25.7455 61.9981C28.5162 61.1782 26.3957 57.3048 26.6219 55.354C26.9046 52.7246 27.2439 50.2932 27.0177 47.6355C26.8198 45.5434 27.4136 43.4794 27.5549 41.359C27.7246 38.8144 27.3005 36.1002 27.2439 33.5557C27.1874 30.9263 26.3392 28.6645 26.2261 26.0634C26.1413 24.1409 26.5088 21.7094 23.9077 22.6989C23.1444 22.9817 22.7768 23.7733 21.8155 23.5471C20.7129 23.2644 20.2605 21.879 20.4019 20.8329C20.6846 18.8256 23.1161 17.2988 25.0104 17.4968C27.8377 17.7795 28.3748 19.8151 28.912 22.3031C29.1665 23.4058 29.6471 24.7063 29.7319 25.8372C29.845 27.3074 29.1947 28.8059 29.0817 30.2478C28.9403 32.3682 29.2513 34.517 29.5057 36.5526C29.7319 38.3621 28.6858 39.6061 29.3361 41.6134C29.7319 42.8292 32.2199 45.5999 33.4922 43.9035C34.0577 43.1684 33.4357 41.3873 33.3508 40.5673C33.2378 39.2385 33.1812 37.8814 33.1247 36.5526C33.0398 34.1212 33.0964 31.7745 32.955 29.3431C32.644 23.943 33.0116 18.4863 32.4178 13.0862C31.9938 9.09974 28.8272 5.36773 24.5297 5.396C22.1831 5.396 20.6281 6.97928 18.9883 8.44947C16.8395 10.3437 16.8678 12.0967 16.5285 14.8674C15.9065 19.9848 15.5673 26.0069 13.3337 30.7567C12.8531 31.8028 12.0897 32.1138 11.4394 32.9902C10.874 33.7253 10.8174 34.7432 10.252 35.45C9.12107 36.8636 6.8027 38.6165 4.90842 38.4186C2.90106 38.2207 1.54396 37.4856 0.724051 35.761C-0.322042 33.6122 -0.435133 31.8028 1.74187 30.1912C3.60788 28.8059 6.01106 30.9829 7.84879 29.9368C9.37552 29.0603 9.14934 25.1587 9.14934 23.7168C9.14934 21.5115 8.69698 19.1649 8.49907 16.9878C8.27288 14.6978 8.27288 12.4642 7.56606 10.2589C6.85925 7.96883 5.67179 5.22637 5.5587 2.82318C5.53042 -0.428188 7.48125 -0.117188 10.0541 0.16554C12.118 0.391722 14.2384 -0.0889148 16.3024 0.16554C17.094 0.250359 17.6594 0.504814 18.4794 0.504814C19.7799 0.504814 21.0522 0.419995 22.3527 0.335177C24.3884 0.193813 26.5936 0.589632 28.601 0.702723C31.1738 0.87236 33.8598 0.702723 36.4891 0.533086C38.8075 0.391723 41.1541 1.07027 43.3877 0.844087C45.7061 0.589632 48.0244 0.702723 50.3993 0.787541C52.5481 0.87236 54.8099 0.476541 56.9586 0.646178C58.1178 0.730996 58.8246 0.985451 60.0121 0.87236C61.2561 0.730996 62.6697 1.01372 63.8289 0.87236C65.0446 0.67445 65.5818 0.250359 66.9672 0.476541C67.8154 0.617905 68.8049 1.29645 69.5683 1.353C70.1337 1.40954 70.8688 0.815814 71.3495 1.042C72.1128 1.40954 70.2186 3.33209 69.7945 3.78446C68.0415 5.67873 68.3526 8.13846 68.2395 10.7396C68.1264 13.1993 67.7023 15.5742 67.7023 18.0057C67.7023 19.1648 67.363 20.2109 67.363 21.3701C67.363 22.6424 67.8154 23.943 67.9285 25.2152C68.2395 28.608 67.8719 29.23 71.5191 29.541V29.4844ZM15.9914 74.1554C16.5851 72.3177 15.9914 70.1407 16.0762 68.2464C16.161 66.8328 19.1014 64.062 15.7086 64.3165C13.2772 64.5144 12.2593 68.4443 12.5138 70.5648C12.8248 73.0528 14.4081 72.7418 15.9914 74.1554Z" fill="white"/>
<path d="M54.6968 85.3514C54.5837 84.5598 54.1596 83.1744 54.3575 82.3828C54.5272 81.676 55.0361 81.1388 55.1774 80.5451C55.3188 79.9796 55.0643 79.5838 55.2623 78.9335C55.4884 78.255 56.1387 77.6895 56.3649 76.9827C56.8173 75.5691 56.5063 74.5795 55.6863 73.4203C54.4141 71.6674 53.057 70.3669 54.1031 68.2464C54.8382 66.7479 58.1178 64.0055 59.1922 66.8893C59.7859 68.4726 56.5345 71.215 59.277 72.2329C61.7933 73.1659 62.4153 69.8579 62.5284 68.1616C62.698 65.7301 62.7263 63.5814 60.4079 62.1112C58.1461 60.6693 54.7533 60.3018 52.7177 62.2808C49.0705 65.7584 49.8904 71.9219 49.5229 76.389C49.0705 81.5629 49.4663 86.7933 49.3532 91.9955C49.2967 94.7945 49.3532 96.8585 47.8265 99.3747C47.3176 100.195 44.6034 103.785 44.3772 101.269C44.2359 99.7705 46.837 97.6218 47.2893 96.0951C48.0527 93.5223 47.2893 90.7798 47.3459 88.1222C47.3741 85.9734 47.1197 83.6833 47.3459 81.5629C47.5721 79.2445 47.0066 76.9827 47.2045 74.6926C47.6003 70.1124 46.7239 65.2495 46.9218 60.6976C47.0349 58.5488 47.0631 56.3153 47.3459 54.11C47.4872 53.0074 47.6003 51.7351 47.6003 50.6042C47.6003 49.3885 47.7417 48.512 47.8548 47.4376C48.081 45.1475 47.5438 42.4333 47.5438 40.0302C47.5438 38.7296 48.081 37.627 48.1375 36.3547C48.1941 35.0259 47.8831 33.6122 47.8548 32.2834C47.7982 29.3148 47.0066 26.6006 47.3741 23.6319C47.6286 21.8225 48.4485 17.1292 50.5972 16.7899C51.0496 16.7051 51.6999 17.2423 52.1522 17.2423C52.5763 17.2423 53.0004 16.7899 53.3962 16.7617C54.8664 16.6486 54.5837 16.6203 55.6581 17.6664C57.1848 19.2214 58.033 20.6068 56.8455 22.7555C55.0926 26.0069 54.5272 22.2183 53.4528 20.9743C51.1062 18.2884 51.3041 23.0099 50.88 24.3953C49.5229 28.7493 49.5794 34.828 49.8339 39.4647C50.1449 44.9496 49.5511 50.4346 49.4663 55.9477C49.4381 58.8316 50.3145 60.8107 53.4811 60.3018C56.3932 59.8211 58.655 59.0295 61.454 60.7824C63.5179 62.0547 65.0446 65.1647 65.4687 67.5113C65.7232 68.9249 65.7797 69.8862 64.875 70.8758C64.7054 71.0737 64.1682 71.0454 63.942 71.2716C63.32 71.9501 63.6875 72.346 63.32 73.1093C62.1043 75.4842 59.3618 76.6151 57.722 78.7639C56.7324 80.0644 55.7994 80.7712 55.5733 82.4676C55.4319 83.5137 55.9691 85.0404 54.6968 85.4362V85.3514Z" fill="white"/>
<path d="M22.9747 39.493C22.9182 43.1684 23.2009 46.8722 22.8051 50.4911C22.692 51.6786 23.1444 53.1205 21.5894 52.6398C20.3454 52.244 19.1579 49.6429 18.2249 48.6816C15.8783 46.1654 12.5703 44.3276 16.472 41.4155C17.8008 40.426 18.8752 39.5778 20.0626 38.4752C21.0805 37.5139 23.2009 37.3725 22.9182 39.493H22.9747Z" fill="white"/>
<path d="M54.4141 53.0074C53.6224 51.3675 54.3292 49.2754 53.7072 47.579C53.0287 45.713 52.5198 45.4868 53.4811 43.6208C53.9052 42.8292 54.2727 42.4899 54.3858 41.5286C54.4423 41.1611 54.1313 39.6626 54.3858 39.3799C55.4036 38.2773 57.1283 39.6061 57.9482 40.2846C59.0791 41.2176 62.1043 43.2533 62.6697 44.469C63.5744 46.4764 61.7084 45.9392 60.21 46.7025C58.5702 47.5507 59.0791 48.6816 58.033 49.8974C57.4958 50.5194 56.5063 50.6607 55.9125 51.2262C55.3188 51.7634 55.1209 52.6116 54.4141 53.0074Z" fill="white"/>
<path d="M55.2905 87.9243C58.0895 90.3557 58.7681 88.8007 59.3335 85.8038C59.9273 82.5524 62.6697 84.0792 63.0373 86.7368C63.3483 88.8007 61.3692 91.0625 59.277 91.317C58.033 91.4583 54.6968 89.1683 55.2905 87.9525V87.9243Z" fill="white"/>
<path d="M25.18 104.803C25.6041 103.418 25.8586 102.881 27.3287 102.57C28.6293 102.287 29.7602 102.541 29.5906 104.209C29.3078 106.726 25.491 108.224 25.18 104.831V104.803Z" fill="white"/>
<path d="M362.926 44.982C362.672 46.226 362.219 47.4983 362.219 48.7423C362.134 53.4639 362.248 58.1854 362.134 62.907C361.993 67.3458 361.569 71.7563 361.371 76.1669C361.201 80.2099 361.06 84.2529 361.088 88.2959C361.088 94.7987 359.449 101.019 358.176 107.323C357.583 110.264 356.876 113.006 354.868 115.24C353.115 117.191 351.334 119.113 348.253 119.17C345.962 119.226 343.785 119.735 341.75 118.067C339.347 116.088 338.385 113.289 339.601 110.603C340.11 109.472 340.704 108.454 342.23 108.483C343.729 108.539 344.577 109.303 345.143 110.575C345.538 111.508 345.934 112.469 346.387 113.374C347.546 115.607 350.345 115.89 351.956 113.911C352.974 112.639 353.766 111.338 353.851 109.472C353.935 107.804 355.236 106.193 355.519 104.496C356.141 100.736 356.593 96.9191 356.876 93.1306C357.272 87.9284 357.554 82.6979 357.724 77.4674C357.809 74.8663 357.583 72.2653 357.498 69.6642C357.498 69.3532 357.667 69.0422 357.752 68.7594C357.922 68.2505 358.261 67.6851 358.205 67.2044C357.978 65.2819 357.441 63.4159 357.356 61.4933C357.328 60.6169 358.063 59.7121 358.431 58.7791C358.318 57.9592 358.176 56.9697 358.063 55.9801C358.035 55.7257 358.063 55.4712 358.063 55.2168C357.837 51.9371 357.865 48.6292 357.356 45.3778C356.65 40.9956 355.49 36.6981 354.557 32.3724C354.388 31.5807 354.077 30.3367 354.416 30.054C355.236 29.4037 356.395 29.0079 357.441 28.9231C359.929 28.7252 362.445 28.6969 364.933 28.7817C366.715 28.8383 368.468 29.2341 369.74 29.432C369.994 31.8352 370.051 33.6164 370.362 35.341C370.956 38.4227 371.719 41.4479 372.313 44.5014C372.482 45.293 372.256 46.1695 372.2 47.1025C372.341 47.2721 372.793 47.5548 372.906 47.9507C373.33 49.5622 373.557 51.202 374.009 52.7853C374.942 56.2629 375.932 59.7121 376.921 63.1614C377.176 64.0661 377.515 64.9709 377.882 65.8473C378.787 68.1092 379.664 70.3993 380.681 72.6328C381.19 73.7354 383.085 73.6789 383.82 72.3783C385.431 69.5511 387.099 66.7238 388.23 63.6986C389.672 59.8535 390.549 55.8105 391.793 51.8806C392.471 49.7318 393.546 47.6679 394.139 45.4909C394.79 43.0595 395.355 40.5432 395.44 38.0552C395.496 36.0478 394.761 34.0122 394.365 31.9765C394.252 31.4394 394.054 30.9022 393.885 30.2802C397.023 28.3576 400.274 29.4037 403.441 29.3189C404.968 29.2624 406.494 29.4885 407.993 29.4603C409.746 29.4603 410.566 31.1001 410.368 32.7682C409.802 37.207 407.456 41.2217 407.993 45.9716C408.389 49.5057 407.738 53.1811 407.597 56.8C407.512 58.9488 407.456 61.1258 407.427 63.2745C407.399 66.9782 407.286 70.682 407.427 74.3857C407.541 78.0894 407.625 81.8214 408.219 85.4404C408.615 87.8436 409.746 90.1619 410.848 92.3672C411.188 93.074 412.517 93.3002 413.308 93.8091C413.789 94.1201 414.156 94.629 414.609 95.0248C414.156 95.4207 413.704 96.2123 413.28 96.184C408.332 96.0144 403.356 95.7882 398.408 95.4207C396.458 95.2793 396.401 94.8269 397.475 93.1871C398.126 92.1976 398.748 91.0949 398.946 89.964C399.539 86.5147 399.963 83.0655 400.303 79.5879C400.642 76.1386 400.84 72.6893 401.01 69.2118C401.264 63.218 401.518 57.2241 401.603 51.2303C401.603 49.5057 402.027 47.47 399.822 45.8585C398.833 48.4313 397.871 50.7497 397.023 53.0963C395.101 58.4964 393.15 63.8965 391.369 69.3532C390.209 72.9721 389.135 76.6475 388.428 80.4078C387.608 84.8466 387.212 89.342 386.647 93.8374C386.449 95.3358 385.884 96.0992 384.131 95.8448C382.265 95.562 380.342 95.7317 378.448 95.4772C377.854 95.3924 377.006 94.629 376.921 94.0636C376.299 90.8405 375.96 87.5608 375.338 84.3377C374.801 81.4822 374.066 78.6549 373.387 75.7993C372.708 72.8873 371.493 70.0034 371.436 67.0913C371.38 64.5468 370.023 62.6808 369.485 60.4472C368.468 56.3194 367.393 52.1916 366.121 48.1486C365.725 46.9328 364.566 45.9433 363.746 44.8407C363.492 44.8689 363.237 44.8972 362.983 44.9537L362.926 44.982Z" fill="white"/>
<path d="M483.962 43.3368C482.011 45.3724 482.322 47.7474 481.927 49.8395C481.644 51.2815 481.814 52.7799 481.757 54.2501C481.644 57.3036 481.418 60.3853 481.474 63.4388C481.503 67.0859 481.757 70.7049 481.927 74.3521C482.096 78.1123 482.351 81.8726 482.407 85.6329C482.464 88.6298 483.086 91.4288 484.669 94.0299C484.98 94.5388 485.121 95.1608 485.432 96.009C483.906 96.2069 482.662 96.4614 481.418 96.4614C478.619 96.4896 475.82 96.4048 473.049 96.3765C471.635 96.3765 471.381 95.6697 471.975 94.5388C472.625 93.2948 473.614 92.1922 473.954 90.8916C474.689 87.8947 475.254 84.813 475.622 81.7312C477.375 67.9907 476.018 54.6176 476.64 40.8488C476.809 36.9472 475.424 33.7523 474.35 30.3313C473.869 28.8046 474.887 28.4653 475.989 28.4936C480.202 28.5501 484.415 28.6915 488.627 28.8329C490.606 28.8894 490.804 29.257 490.041 30.9533C488.882 33.4979 489.278 36.0424 490.352 38.3891C492.896 43.9305 495.611 49.4155 498.353 54.8721C501.096 60.3288 503.923 65.7289 506.778 71.1007C508.673 74.6348 510.652 78.1123 512.687 81.5616C513.027 82.1271 513.818 82.3815 514.412 82.7773C514.61 82.1553 514.978 81.5051 514.978 80.8831C514.978 62.9581 515.062 45.1463 516.024 27.2496C516.193 24.3375 516.561 21.3971 517.296 18.5981C517.776 16.6756 518.794 14.7813 520.038 13.2263C521.565 11.2755 523.092 9.21156 525.608 8.19374C528.237 7.11937 530.839 5.87537 533.751 6.12983C536.663 6.41255 538.755 11.4451 536.861 13.509C534.486 16.1101 533.638 16.7038 530.273 15.2054C526.428 13.4808 524.336 13.0284 522.724 18.2306C515.543 41.2163 521.82 67.1708 521 90.722C520.971 91.8529 521.565 93.0404 522.046 94.143C522.724 95.7828 522.328 96.7441 520.604 96.7724C517.296 96.8289 513.96 96.7724 510.652 96.5744C510.199 96.5744 509.549 95.5849 509.38 94.9629C508.786 92.7011 508.56 90.3544 507.825 88.1492C506.835 85.2371 505.591 82.4098 504.206 79.6673C501.661 74.6065 498.919 69.687 496.317 64.6545C494.508 61.2052 492.981 57.5863 491.03 54.2218C488.91 50.5746 486.479 47.0971 484.075 43.3651L483.962 43.3368Z" fill="white"/>
<path d="M623.942 55.0794C624.225 53.072 624.31 51.0929 624.819 49.2269C625.186 47.8698 626.459 46.7672 626.798 45.4101C628.183 39.6424 632.113 35.9387 636.778 32.8853C638.277 31.924 640.171 31.4999 641.98 31.1323C648.992 29.7187 654.505 32.1502 659.34 37.3524C662.45 40.6885 663.779 44.7881 664.712 48.6897C666.351 55.4187 667.454 62.4869 665.956 69.442C664.74 75.0682 662.959 80.638 660.923 86.0098C660.047 88.2999 657.983 90.1659 656.286 92.1167C655.24 93.3325 653.77 94.2089 652.696 95.4247C651.536 96.7252 650.095 96.9514 648.54 96.9797C646.56 97.0362 644.525 97.2907 642.631 96.8948C640.849 96.499 639.153 95.4529 637.513 94.5482C636.269 93.8414 635.138 92.9084 633.979 92.0602C633.64 91.8057 633.244 91.523 633.103 91.1555C632.65 89.9397 632.283 88.6957 630.586 88.724C630.473 88.724 630.304 87.9606 630.191 87.5648C629.993 86.9145 629.88 85.7553 629.597 85.6988C628.07 85.5009 627.589 84.2286 627.222 83.2108C626.119 80.1573 624.904 77.1039 624.479 73.9373C624.027 70.6294 624.479 67.1801 624.564 63.8157C624.564 63.4764 625.045 63.1937 625.073 62.8544C625.158 62.1193 625.412 61.158 625.073 60.6491C624.055 59.2072 624.253 57.9632 625.13 56.6061C625.384 56.2386 625.384 55.7014 625.497 55.249C625.101 55.2208 624.734 55.1925 623.942 55.1077V55.0794ZM635.817 46.2866C635.393 46.8237 634.658 47.3044 634.573 47.8698C634.234 50.0468 633.923 52.2521 633.923 54.4574C633.923 60.6208 634.318 66.7843 634.036 72.9195C633.838 77.5563 634.799 81.9103 635.789 86.2925C636.891 91.1272 642.8 94.0676 647.55 92.767C651.395 91.7209 653.94 89.1198 655.41 85.8402C656.626 83.1543 657.898 80.016 656.032 76.8494C655.777 76.4253 656.088 75.662 656.201 75.0682C656.343 74.4462 656.739 73.8808 656.767 73.2871C657.276 66.7843 657.587 60.3099 656.428 53.8354C656.173 52.3935 656.399 50.895 656.343 49.4248C656.315 48.4918 656.202 47.5588 656.004 46.6541C655.806 45.6928 655.495 44.7315 655.184 43.7703C654.731 42.3849 654.307 40.943 653.685 39.6424C653.261 38.7377 652.187 38.0874 651.904 37.1827C651.452 35.5712 650.349 34.8643 648.992 34.8926C646.249 34.9774 643.479 34.3272 640.765 35.7691C639.323 36.5607 638.361 37.5785 637.259 38.7094C635.534 40.4906 634.629 44.1661 635.76 46.2866H635.817Z" fill="white"/>
<path d="M462.871 62.1722C462.73 61.4089 462.589 60.6455 462.447 59.8821C462.164 59.9104 461.853 59.9669 461.571 59.9952C461.74 61.1827 461.684 62.4832 462.136 63.5576C462.504 64.434 462.702 64.8299 462.051 65.7063C461.656 66.2435 461.74 67.5723 462.164 68.1943C463.069 69.5797 463.154 70.6258 462.023 71.8981C461.458 72.5201 460.977 73.4248 462.391 73.9337C462.673 74.0185 462.928 74.5557 462.956 74.895C463.211 76.9872 462.984 78.8249 461.429 80.5778C460.44 81.6804 459.987 83.4051 459.648 84.9318C458.659 89.2575 455.549 91.7738 452.354 94.3749C448.141 97.7959 443.165 98.3331 438.246 97.6546C435.531 97.2588 432.902 95.421 430.555 93.7529C426.852 91.1518 424.901 87.335 423.516 83.0093C422.158 78.7966 421.961 74.4143 420.66 70.23C420.49 69.7211 420.66 69.0991 420.66 68.5336C420.603 67.0917 420.349 65.678 420.462 64.2644C420.603 62.3984 420.914 60.5041 421.367 58.6664C422.272 54.9627 423.289 51.2872 424.335 47.6117C425.212 44.53 426.823 41.9006 428.689 39.2147C430.555 36.5571 432.93 34.6911 435.277 32.6554C435.729 32.2596 436.38 31.9203 436.945 31.9203C440.677 31.779 444.494 31.0722 448.028 32.8533C449.498 33.5884 450.601 35.0586 452.043 35.8503C453.513 36.6702 454.163 38.0273 455.04 39.2995C455.322 39.7236 456.171 39.7519 456.793 39.9781C456.764 41.3917 456.651 42.6074 458.517 43.4274C459.507 43.8797 460.044 45.6892 460.525 46.9897C461.316 49.1385 462.136 51.3155 462.532 53.549C463.013 56.3763 463.041 59.2884 463.267 62.1722C463.182 62.1722 463.069 62.1722 462.984 62.1722H462.871ZM451.732 82.5569C452.071 81.6522 452.467 80.9454 452.608 80.182C452.806 79.1359 452.834 78.0615 452.919 77.0154C453.032 75.6866 453.23 74.3861 453.259 73.0572C453.287 69.5797 453.004 66.0739 453.287 62.6246C453.796 56.5742 453.485 50.6086 452.043 44.7279C451.732 43.4839 451.675 42.0985 450.997 41.0807C447.349 35.511 442.882 33.5884 436.549 37.2356C433.779 38.8189 431.63 41.3352 431.008 44.5865C430.555 46.9615 429.82 49.4777 431.008 51.9092C431.177 52.2485 431.121 52.8139 431.008 53.2097C429.34 58.4968 429.99 63.9534 430.075 69.3252C430.131 73.1138 430.555 76.9306 430.838 80.7192C430.895 81.2563 431.177 81.7935 431.347 82.3307C431.602 83.1506 431.856 83.9705 432.11 84.8187C432.478 86.1475 432.676 87.5329 433.241 88.7486C433.807 89.9361 434.74 90.9822 435.531 92.0566C435.842 92.4807 436.21 93.1875 436.606 93.2157C439.207 93.4137 441.865 93.7812 444.409 93.4419C446.558 93.1592 448.424 92.0848 449.922 89.9926C451.421 87.8722 452.721 84.7056 451.76 82.5286L451.732 82.5569Z" fill="white"/>
<path d="M342.515 45.6594C341.045 43.4541 339.97 41.5881 338.642 39.92C335.758 36.3859 332.111 34.6896 327.417 34.011C323.459 33.4173 319.727 33.4738 315.91 34.1241C313.479 34.5199 311.896 35.9618 311.669 38.3933C311.245 42.7756 311.047 47.1861 310.765 51.5684C310.68 52.9538 310.567 54.3674 310.567 55.781C310.567 57.3926 311.698 58.1277 313.026 58.156C314.723 58.2125 316.447 57.8732 318.144 57.7319C318.964 57.6753 319.812 57.5905 320.632 57.5905C323.883 57.5905 326.597 54.9611 326.654 51.7663C326.654 50.9181 326.513 49.8155 327.7 50.0134C328.237 50.0982 328.944 51.2574 328.972 51.9642C329.142 56.5444 329.114 61.1529 329.227 65.7613C329.255 67.1467 329.736 68.5038 329.764 69.8892C329.764 70.5112 329.227 71.1332 328.916 71.7552C328.633 71.2745 328.152 70.8222 328.068 70.3133C327.559 67.4012 326.06 64.8849 323.403 63.9802C320.321 62.9058 316.928 62.51 313.62 62.2555C311.189 62.0859 310.143 63.3582 310.143 65.8462C310.086 72.1793 310.058 78.5124 310.143 84.8455C310.143 86.4853 310.312 88.2099 310.821 89.7367C311.132 90.6697 312.178 91.744 313.111 92.0268C318.342 93.5535 323.6 93.5818 329.001 92.4226C331.432 91.9137 333.863 91.6027 336.04 90.3304C339.094 88.5209 341.271 85.9481 342.628 82.6685C342.798 82.2161 343.08 81.8203 343.646 81.4527C344.042 86.6267 344.07 91.7723 343.646 96.8614C339.405 96.8614 335.447 96.8614 331.489 96.8614C321.65 96.8049 311.782 96.7483 301.944 96.6352C301.095 96.6352 300.275 96.1546 298.805 95.7305C302.594 92.2529 302.594 87.9555 303.357 83.9407C303.866 81.3396 303.923 78.6255 303.951 75.9395C304.036 71.3028 303.951 66.6661 304.007 62.0293C304.064 58.8628 304.318 55.6962 304.431 52.5014C304.46 51.3705 304.29 50.2113 304.234 49.0804C304.092 45.9138 304.007 42.7473 303.838 39.5807C303.696 36.9796 303.103 34.5482 301.293 32.5126C300.926 32.0885 300.558 31.1272 300.784 30.901C301.18 30.4486 301.972 30.1376 302.594 30.1376C310.086 30.0245 317.578 29.9397 325.042 29.968C327.361 29.968 329.651 30.4769 331.969 30.5617C334.74 30.6465 337.482 30.5052 340.253 30.4769C342.571 30.4769 343.363 31.0706 342.826 33.2194C342.345 35.1985 343.109 36.9231 343.165 38.7891C343.222 40.3724 343.391 41.9839 343.363 43.5672C343.363 44.2175 342.854 44.8395 342.458 45.7725L342.515 45.6594Z" fill="white"/>
<path d="M583.143 103.195C585.518 103.958 588.035 104.778 590.098 105.456C587.61 105.937 584.925 105.569 583.143 103.195Z" fill="white"/>
<path d="M577.15 83.1774C579.694 80.0674 578.394 76.7029 578.789 73.5929C579.072 71.3028 579.242 68.9845 579.949 66.6095C580.005 67.0619 580.118 67.5425 580.09 67.9949C579.892 70.7939 580.655 73.2536 582.861 75.1762C583.709 75.9113 584.105 76.7312 583.37 77.5511C582.889 78.06 581.928 78.4558 581.221 78.4558C579.864 78.4276 579.298 78.9365 579.298 80.1522C579.27 84.6476 578.902 89.1995 579.355 93.6666C579.638 96.4373 581.108 99.1232 581.928 101.866C580.288 99.7452 579.355 97.3703 579.044 94.7127C578.733 91.9137 578.422 89.0864 577.772 86.3439C577.404 84.8172 576.33 83.4319 575.595 81.9899C575.368 82.0465 575.142 82.0748 574.944 82.1313C574.775 84.0256 574.379 85.9199 574.464 87.8141C574.633 91.8006 574.888 95.8153 575.453 99.7735C575.906 103.138 578.026 105.683 580.74 107.803C584.981 111.139 589.703 111.083 594.198 108.906C596.488 107.803 598.354 105.598 599.966 103.534C602.482 100.311 603.302 96.3242 604.461 92.5074C606.581 85.524 606.553 78.4841 605.875 71.3594C605.592 68.3059 605.62 65.1959 605.083 62.1707C604.659 59.8241 603.556 57.5623 602.765 55.2722C602.567 54.6502 602.369 53.9999 602.256 53.3496C601.577 49.9852 598.495 48.7694 596.092 46.9317C595.866 46.7621 595.583 46.5924 595.018 46.2249C599.881 45.6877 603.669 47.2427 606.666 50.2679C608.617 52.247 610.455 54.5371 611.529 57.0251C612.745 59.8241 613.282 62.9341 613.763 65.9593C614.922 73.4516 614.894 80.9438 613.452 88.4079C611.869 96.6918 607.854 103.788 601.719 109.697C597.987 113.288 593.208 114.249 588.119 114.136C583.03 114.023 577.913 113.853 572.824 113.769C570.166 113.712 564.568 113.769 561.43 113.769C562.052 112.807 562.448 112.185 562.872 111.592C565.247 108.227 566.208 104.354 566.434 100.452C566.915 91.8571 567 83.2339 567.141 74.6107C567.226 70.2002 567.198 65.7896 567.028 61.3791C566.858 57.1664 566.208 52.9538 566.151 48.7411C566.095 45.7442 566.717 42.7473 566.858 39.7221C567.028 36.4142 567.141 33.078 567.028 29.7418C566.887 25.2747 566.632 20.8076 566.208 16.3688C565.897 13.1457 565.388 9.92262 564.625 6.78434C564.257 5.28588 563.07 4.01361 562.335 2.59997C561.995 1.97797 561.826 1.29942 561.571 0.649147C562.221 0.479511 562.872 0.196783 563.522 0.196783C571.184 0.196783 581.815 -0.00112651 589.448 0.36642C591.71 0.479511 593.915 2.11933 596.064 3.22197C597.449 3.92879 598.722 4.91834 599.994 5.79479C600.248 5.96443 600.333 6.33198 600.588 6.55816C601.125 7.06707 601.803 7.46289 602.256 8.02834C603.274 9.32889 604.518 10.5729 605.111 12.0714C605.931 14.1918 607.26 16.1709 606.949 18.6589C606.723 20.4401 607.458 22.3344 605.818 23.8611C605.648 24.0307 605.818 24.8789 606.101 25.1051C607.232 26.0381 607.062 26.8297 606.101 27.7345C605.846 27.9607 605.875 28.4413 605.762 28.8371C606.129 28.8371 606.525 28.8654 606.779 28.8937C608.108 31.7775 605.309 33.2759 604.461 35.4247C602.623 40.0897 598.467 42.1536 594.255 44.0196C592.558 44.783 590.551 44.896 588.713 45.3767C583.228 46.8751 580.74 49.8721 581.391 55.2439C581.843 58.8628 583.426 60.955 586.932 60.8419C587.667 60.8419 588.657 60.6723 589.052 60.1916C589.618 59.4848 589.759 58.467 590.07 57.5623C589.363 57.4774 588.628 57.1947 587.95 57.3078C586.31 57.6188 585.038 57.3078 584.246 55.7811C585.094 53.1234 587.356 51.8229 589.816 52.6428C592.219 53.4344 593.661 56.6858 592.813 59.0607C590.749 65.0263 583.794 64.8849 579.92 61.6335C576.98 59.1738 576.669 52.3318 578.422 48.9391C580.175 45.5181 583.398 44.585 586.536 43.3693C587.893 42.8321 589.307 42.4646 590.72 42.097C594.566 41.0792 596.121 38.9588 595.951 35.2268C595.894 34.2089 596.658 33.1628 596.743 32.0885C596.969 29.6287 596.997 27.169 597.167 24.7093C597.28 22.9564 597.789 21.1752 597.619 19.4223C597.308 16.0578 596.629 12.6934 596.121 9.32889C595.668 6.36025 593.491 4.86179 590.947 3.67434C589.618 3.05233 588.374 2.51515 587.186 3.90052C587.017 4.09843 586.621 4.15497 586.31 4.21152C579.27 5.25761 575.001 11.4776 574.577 17.3866C574.407 19.6485 574.351 21.9386 574.322 24.2286C574.322 41.9557 574.322 59.6544 574.351 77.3815C574.351 78.9082 574.011 80.6329 576.16 81.3962C576.612 81.5658 576.782 82.4706 577.15 83.1491V83.1774Z" fill="white"/>
<path d="M601.521 89.1712C601.436 87.7576 601.408 86.3439 601.21 84.9586C600.955 83.347 600.305 82.1313 598.213 82.0182C596.262 81.9051 595.47 80.7742 595.612 78.8517C595.668 78.1731 595.81 77.4946 595.838 76.8443C595.923 75.2045 595.725 73.7343 593.633 73.3102C593.35 73.2536 593.124 72.8861 592.897 72.6599C593.011 72.5186 593.095 72.3772 593.208 72.2358C594.65 73.1971 596.121 74.1301 597.562 75.0914C598.128 75.4589 598.58 76.0809 599.202 76.3071C600.588 76.8443 601.719 76.1375 601.577 74.7521C601.379 72.6882 601.21 70.5677 600.531 68.6452C599.711 66.2703 596.997 65.9875 595.188 67.797C594.679 68.3059 593.746 68.6169 593.011 68.6452C592.728 68.6452 592.021 67.486 592.162 67.0619C592.417 66.3551 593.067 65.5069 593.774 65.2524C595.329 64.6587 596.856 64.9415 598.298 65.931C598.693 66.1855 599.542 65.8179 600.192 65.7331C599.994 64.8001 599.824 63.0754 599.57 63.0754C596.488 62.9341 596.516 60.5874 596.205 58.7214C595.951 57.0816 596.149 55.3853 596.516 53.4344C597.562 55.3004 599.061 57.0533 599.598 59.0607C600.701 63.0189 601.521 67.0902 602.001 71.1615C602.482 75.1197 602.51 79.1344 602.482 83.1208C602.482 85.1565 601.832 87.1639 601.492 89.1995H601.549V89.2278L601.521 89.1712Z" fill="white"/>
<path d="M601.464 89.143C601.832 95.5326 596.46 104.439 591.738 104.806C594.085 103.562 596.036 102.064 596.516 99.717C596.969 97.5117 596.884 95.2216 596.997 93.3556C598.043 94.5996 598.637 94.5431 599.768 92.5357C600.39 91.4613 600.927 90.3021 601.492 89.1995L601.436 89.143H601.464Z" fill="white"/>
<path d="M595.781 91.1786C594.735 90.698 593.717 90.0194 592.586 89.765C591.286 89.454 590.664 90.189 591.003 91.4896C591.116 91.9702 591.314 92.4226 591.569 92.8467C592.106 93.7514 592.134 94.5996 591.031 94.9389C590.098 95.2216 588.713 95.3912 588.544 94.0341C588.402 92.7901 588.374 91.2069 589.052 90.2739C589.929 89.0299 591.597 88.3796 593.322 89.2843C594.283 89.7932 595.216 90.3587 596.149 90.8959C596.008 91.009 595.894 91.0938 595.781 91.2069V91.1786Z" fill="white"/>
<path d="M565.897 73.7908C565.897 73.7908 565.812 73.6777 565.784 73.6212C565.614 73.3667 565.445 73.0557 565.134 72.9144C563.041 71.9814 561.628 70.4829 560.751 68.1646C560.44 67.3164 559.79 66.6095 559.196 65.931C558.97 65.6765 558.772 65.4504 558.546 65.1959C558.546 65.1676 558.546 65.1394 558.518 65.0828C558.49 64.9697 558.376 64.9132 558.263 64.8849C558.15 64.8849 558.009 64.8849 557.924 64.9697C557.783 65.0828 557.754 65.2807 557.867 65.4221C557.867 65.4221 557.896 65.4786 557.924 65.4786C557.924 65.4786 557.924 65.4786 557.924 65.5069C558.037 65.8462 558.15 66.2137 558.292 66.553C558.603 67.5143 558.942 68.5038 559.366 69.4651C559.592 69.974 559.903 70.6525 559.79 70.8787C559.677 71.1049 558.857 71.2746 558.348 71.3876C557.104 71.6421 556.199 72.2076 555.69 73.0557C555.153 73.9322 555.097 75.0348 555.464 76.3354C555.493 76.4767 555.634 76.5898 555.775 76.5898C555.917 76.5898 556.058 76.505 556.115 76.3637C556.228 76.0809 556.312 75.8547 556.397 75.6286C556.567 75.2045 556.708 74.8652 556.878 74.5542L557.019 74.2715C557.245 73.8191 557.5 73.3667 557.839 73.1123C559.592 71.84 562.193 72.2358 564.285 74.0736C564.512 74.2715 564.823 74.3846 565.105 74.4694L565.303 74.5259C565.586 74.639 565.727 74.4128 565.812 74.328C565.897 74.2432 566.095 73.9605 565.925 73.706L565.897 73.7908Z" fill="white"/>
<path d="M560.78 75.9961C560.525 75.9396 560.271 75.8547 560.073 75.7982C559.988 75.7699 559.903 75.7982 559.79 75.7982C559.705 75.8265 559.649 75.9113 559.62 75.9961L559.507 76.3354C559.338 76.8726 559.14 77.438 558.942 77.9752C558.885 78.1166 558.857 78.2862 558.829 78.4558C558.772 78.6537 558.716 78.9648 558.687 78.993C558.376 79.1061 557.839 79.0213 557.443 78.8234C557.104 78.6537 556.821 78.3428 556.51 78.06C556.369 77.9187 556.228 77.7773 556.086 77.6642C555.973 77.5511 555.775 77.5511 555.634 77.6642L555.125 78.0035C554.984 78.1166 554.927 78.3145 555.012 78.4841L558.942 84.8738C558.942 84.8738 558.97 84.902 558.97 84.9303C558.97 84.9303 558.97 84.9869 558.97 85.0151C558.97 85.0151 558.97 85.0717 558.998 85.0717C558.998 85.2696 558.998 85.4958 559.112 85.6937C559.903 87.588 560.044 88.9733 559.564 89.9629C559.14 90.8676 558.235 91.5179 556.793 91.9985C556.171 92.1964 555.662 93.4687 555.86 94.0907C556.058 94.7127 556.963 95.3064 557.67 95.4478C557.868 95.4761 558.037 95.5043 558.235 95.5043C558.998 95.5043 559.734 95.2216 560.356 94.6844C561.147 93.9776 561.543 93.0163 561.486 91.9702C561.345 89.8498 561.006 87.8141 560.695 86.0895C560.61 85.6654 560.271 85.3261 559.96 85.0151C559.875 84.9303 559.79 84.8455 559.734 84.7889C559.734 84.7889 559.734 84.7889 559.734 84.7607C559.762 84.591 559.818 84.3649 559.79 84.1387C559.62 82.3292 560.101 81.0569 561.543 79.4171C562.165 78.7386 562.363 77.6077 562.25 76.8443C562.193 76.3919 561.571 76.2223 560.808 76.0244L560.78 75.9961Z" fill="white"/>
<path d="M218.283 113.489C219.329 111.594 220.262 109.983 221.11 108.315C221.534 107.495 221.874 106.618 222.1 105.714C222.835 102.575 223.485 99.4371 224.192 96.2989C224.249 95.9879 224.39 95.6769 224.39 95.3376C224.503 89.6548 224.588 83.9437 224.757 78.2608C224.899 73.8503 225.153 69.468 225.323 65.0574C225.408 62.6543 225.408 60.2228 225.464 57.8196C225.549 54.2855 225.662 50.7514 225.719 47.189C225.719 45.5775 225.606 43.9659 225.521 42.3261C225.408 39.7533 225.351 37.1522 225.182 34.5794C225.125 33.7877 224.786 32.9961 224.814 32.2893C224.927 31.2715 225.21 30.2254 225.153 29.2075C224.955 25.6452 224.701 22.0545 224.333 18.4922C224.107 16.3717 223.74 14.2512 223.174 12.1873C222.609 10.1517 221.732 8.20087 220.884 6.25005C220.545 5.45841 219.81 4.86469 218.99 3.87514C219.979 3.59241 220.714 3.22486 221.478 3.22486C226.086 3.28141 230.666 3.42277 235.275 3.56414C237.395 3.62068 237.339 3.73377 236.745 5.88251C235.982 8.54015 235.784 11.4805 234.596 13.912C233.522 16.089 234.907 18.0398 234.285 20.0472C234.201 20.3016 234.653 20.7257 234.851 21.065C235.162 20.7257 235.643 20.443 235.784 20.0189C236.547 17.6723 236.689 14.845 238.102 13.0921C240.11 10.6323 242.032 8.00296 245.17 6.33487C249.355 4.10132 253.709 3.56414 258.063 3.53586C261.88 3.53586 265.696 4.72332 269.117 6.81551C274.15 9.89724 278.25 13.6292 281.105 19.1707C284.215 25.2494 286.42 31.3563 287.778 38.0852C289.926 48.8289 289.502 59.5442 289.05 70.2879C288.795 76.4514 287.269 82.5866 284.752 88.2411C282.688 92.9344 280.229 97.5146 277.373 101.756C274.489 105.996 271.153 110.039 266.545 112.556C265.527 113.121 264.255 113.517 263.124 113.517C248.648 113.574 234.201 113.574 219.725 113.545C219.357 113.545 218.99 113.46 218.368 113.376L218.283 113.489ZM263.915 82.9824C264.509 83.9154 265.103 84.8484 265.951 86.1772C266.997 84.6222 267.958 83.4913 268.552 82.1625C270.164 78.7697 270.672 75.2074 270.277 71.4188C269.937 68.1957 269.117 67.0648 265.979 66.7538C263.18 66.4711 261.964 64.8878 262.304 62.004C262.445 60.8448 262.643 59.6856 262.7 58.4982C262.841 55.6992 262.162 54.7661 259.646 53.6918C259.024 53.4373 258.6 52.7305 258.063 52.2216C258.317 51.9389 258.543 51.6844 258.798 51.4017C261.06 53.1829 263.322 54.9641 265.612 56.717C266.262 57.2259 266.912 57.9044 267.647 58.0458C268.863 58.272 270.672 58.4982 270.786 56.8018C271.04 52.8436 271.068 48.7723 268.891 45.2382C267.28 42.6371 263.463 42.213 261.597 45.2382C260.607 46.8498 259.335 46.8498 258.204 46.1995C256.988 45.4927 256.536 44.1356 257.413 42.6371C258.374 41.0256 261.597 39.8381 263.293 40.6298C264.509 41.1952 265.612 41.9586 266.856 42.4958C267.308 42.6937 267.958 42.6371 268.439 42.4392C268.693 42.3544 268.806 41.7041 268.835 41.3083C268.891 40.4601 268.92 39.6119 268.835 38.792C268.778 38.3397 268.552 37.6328 268.241 37.548C266.743 37.0391 265.188 36.6998 263.717 36.304C263.293 31.6956 262.869 27.3415 262.445 22.9593C262.671 22.8744 262.897 22.7896 263.124 22.7048C263.746 23.553 264.481 24.3164 264.99 25.2494C266.743 28.4159 268.298 31.5542 269.174 35.2297C270.729 41.8455 272.199 48.4613 272.171 55.2751C272.171 62.1736 271.86 69.1004 271.549 75.999C271.492 77.5257 271.012 79.0525 270.559 80.5509C269.683 83.6327 268.835 86.7427 267.732 89.7679C265.583 95.6769 262.615 100.992 255.942 102.293C253.37 102.802 250.231 103.141 248.083 102.067C245.368 100.709 243.05 98.08 241.212 95.5072C238.413 91.549 238.131 86.6578 237.82 81.9363C237.509 76.9885 237.282 72.0408 233.833 68.0544C233.409 67.5737 232.928 67.1496 232.476 66.7255C232.278 67.3475 231.939 67.9978 231.939 68.6198C231.882 73.1717 231.967 77.7519 231.854 82.3038C231.713 86.9123 231.854 91.549 233.409 95.8465C234.879 99.8895 237.113 103.706 240.873 106.194C242.089 106.986 243.078 108.371 244.379 108.795C247.913 109.955 251.617 110.577 255.292 109.559C257.61 108.937 260.212 108.428 262.021 106.986C264.905 104.724 267.562 102.038 269.089 98.4476C270.39 95.4507 272.143 92.6234 273.245 89.5417C274.207 86.9123 274.404 84.0285 275.14 81.3426C276.101 77.865 276.864 74.4157 277.175 70.7968C277.826 62.7108 277.401 54.6531 276.921 46.567C276.695 42.4958 276.271 38.3962 275.592 34.3815C275.168 31.8086 274.122 29.2924 273.245 26.8044C272.991 26.0693 272.001 25.4755 272.001 24.8253C272.001 21.9697 270.616 19.7079 268.891 17.9267C266.912 15.8628 264.396 14.3078 261.993 12.7811C261.031 12.1591 259.703 12.1591 258.515 11.9046C257.95 11.7632 257.356 11.7915 256.875 11.5088C253.002 9.38833 245.142 12.8093 243.333 16.5413C241.297 20.7823 240.901 24.9101 242.513 29.5185C243.785 33.1375 248.167 35.2862 251.362 34.127C253.059 33.505 254.472 31.2997 254.133 29.5185C253.935 28.4725 253.285 28.0201 252.154 28.4159C250.995 28.8117 249.779 29.2076 248.563 29.2641C246.98 29.3489 245.34 26.8326 245.821 25.2776C246.782 22.1676 251.617 20.4147 254.5 22.1111C259.448 25.0232 259.957 32.7699 255.377 36.3323C251.504 39.3575 247.263 39.6685 242.852 37.7742C241.438 37.1522 239.686 36.3888 238.979 35.1448C237.282 32.1196 236.123 28.8117 234.653 25.3625C234.285 25.8148 234.003 25.9845 234.003 26.1824C233.72 28.7269 233.409 31.2432 233.211 33.7877C233.041 35.7951 232.985 37.8307 232.872 39.8664C232.533 47.6979 232.165 55.5295 231.826 63.3328C231.769 64.803 232.193 65.9056 233.805 65.5098C234.427 66.6973 234.936 67.6868 235.473 68.6764C235.727 68.6198 235.954 68.5633 236.208 68.5067C236.66 66.4145 237.339 64.3223 237.48 62.2019C237.82 56.8866 237.254 51.5431 238.583 46.2843C238.866 45.1251 238.724 43.8246 238.781 42.6088C239.092 42.6088 239.403 42.6088 239.714 42.6088C239.714 43.5984 239.77 44.6162 239.714 45.6058C239.459 49.677 240.392 53.296 243.531 55.9819C244.944 57.1976 245.255 58.5264 244.548 60.1097C243.842 61.7495 242.456 61.4951 241.071 61.1841C239.629 60.8731 238.696 61.2972 238.696 63.0501C238.696 70.1748 238.244 77.3278 238.837 84.3678C239.261 89.5134 240.59 94.7721 244.746 98.5324C249.609 102.915 257.102 103.593 261.371 97.3732C262.219 96.1292 263.208 94.9135 263.689 93.4999C264.226 91.9731 264.452 90.2485 264.424 88.6369C264.424 86.7144 263.972 84.7918 263.717 82.8976L263.661 82.9541L263.915 82.9824Z" fill="white"/>
<path d="M263.972 82.9258C263.322 82.2756 262.586 81.6818 262.021 80.9467C260.72 79.3069 259.279 78.3739 257.017 78.7132C255.575 78.9394 255.433 79.731 255.603 80.664C255.773 81.6536 256.451 82.5583 256.677 83.5761C256.847 84.3112 256.988 85.3573 256.621 85.8662C256.253 86.3751 255.264 86.4882 254.5 86.6013C252.634 86.8558 251.928 85.5835 251.56 84.0285C251.079 82.1059 251.447 80.2965 252.917 79.0242C254.359 77.7802 256.084 76.5927 258.119 77.3278C260.834 78.3174 263.576 79.42 263.944 83.0107L264 82.9541L263.972 82.9258Z" fill="white"/>
<path d="M705.734 97.8791C706.667 96.1544 707.431 94.7408 708.194 93.2989C708.816 92.0832 708.958 91.0653 707.911 89.8213C706.865 88.5773 706.356 86.9092 705.565 85.4673C703.303 81.3395 701.013 77.24 698.751 73.1404C698.581 72.8011 698.383 72.4336 698.101 72.2074C695.726 70.2849 695.5 67.2031 694.086 64.7717C692.701 62.3685 690.891 60.1632 689.336 57.8448C686.848 54.0845 684.162 50.4374 682.014 46.5074C680.063 42.9451 676.896 40.2874 675.087 36.6685C674.069 34.6611 672.853 32.7103 672.033 30.6181C671.411 29.0349 672.938 28.8087 673.956 28.7804C676.613 28.7239 679.299 28.837 681.957 28.9218C683.738 28.9783 685.519 29.0914 687.866 29.1762C687.244 30.2789 686.961 30.8726 686.594 31.4098C684.473 34.3784 684.502 35.9051 686.424 38.8738C687.612 40.7115 688.488 42.7472 689.675 44.5849C691.061 46.7619 692.588 48.8541 694.058 51.0028C694.482 51.6248 695.019 52.2185 695.358 52.8688C697.451 56.7987 699.373 60.7852 701.578 64.6586C703.162 67.4576 705.112 70.0304 706.837 72.7446C709.551 77.0986 712.209 81.4809 714.923 85.8349C715.404 86.5983 716.054 87.2203 716.506 87.9836C717.552 89.7648 718.514 91.6025 719.503 93.412C719.899 94.1471 720.295 94.8539 720.662 95.589C721.002 96.2393 721.284 96.8895 721.595 97.5398C720.776 97.7943 719.984 98.2466 719.164 98.2749C715.856 98.3314 712.548 98.2749 709.212 98.1901C708.166 98.1901 707.12 97.9922 705.763 97.8508L705.734 97.8791Z" fill="white"/>
<path d="M684.756 72.8577C684.388 71.0199 685.463 69.6063 687.612 69.2105C688.545 69.0408 689.421 68.5037 690.241 67.9948C690.467 67.8534 690.382 67.2597 690.439 66.8921C689.902 66.8921 689.251 66.6659 688.827 66.8921C688.234 67.1748 687.781 67.7686 686.961 68.5319C686.735 65.1957 690.1 66.5528 690.269 65.0544C691.711 65.9026 692.955 66.6377 694.595 67.5989C693.238 68.4471 691.966 69.2388 690.58 70.1152C690.722 70.7938 691.881 70.8786 693.973 70.3414C693.096 71.3309 692.192 72.2922 691.4 73.3383C691.004 73.8755 690.863 74.6389 690.58 75.2609C689.873 76.7876 689.167 78.3143 688.403 79.841C686.82 82.9511 685.208 86.0328 683.597 89.1145C682.014 92.1114 680.459 95.1084 678.847 98.077C677.207 101.13 675.483 104.156 673.843 107.209C672.09 110.404 669.008 112.242 666.237 114.306C665.078 115.182 663.24 115.352 661.685 115.465C659.678 115.606 657.614 115.606 655.635 115.267C653.882 114.956 653.034 113.457 652.61 111.733C652.129 109.669 652.497 108.001 654.419 106.785C657.445 104.862 657.501 104.834 660.498 107.068C662.279 108.397 662.76 108.397 663.947 106.531C664.852 105.117 665.389 103.477 666.237 102.035C666.633 101.385 667.566 101.102 667.99 100.48C668.725 99.4341 669.206 98.2466 669.828 97.1157C672.175 92.8748 674.465 88.6056 676.868 84.4212C678.932 80.8589 681.137 77.3813 683.342 73.9038C683.597 73.4797 684.162 73.2818 684.728 72.8859L684.756 72.8577Z" fill="white"/>
<path d="M698.355 55.3003C697.818 54.3673 697.451 53.6887 696.97 52.8405C698.242 53.2646 699.005 52.9819 698.751 51.1442C697.903 51.1725 696.998 51.229 696.093 51.2573C695.98 50.4939 696.942 49.8154 698.977 49.2782C698.27 48.8824 697.846 48.6844 697.337 48.3734C698.383 46.253 699.317 44.1325 700.447 42.1252C702.709 38.1104 705.056 34.124 707.459 30.1658C709.014 27.5647 710.513 24.907 712.407 22.5604C715.46 18.8284 719.249 16.199 724.366 16.2556C724.819 16.2556 725.271 16.2556 725.695 16.2556C730.219 16.0577 731.095 16.6797 732.085 21.0619C732.226 21.7122 732.226 22.73 731.83 23.1541C730.812 24.3133 729.653 25.5573 728.296 26.1793C726.911 26.8296 725.554 26.0097 724.394 24.8788C722.613 23.1824 721.737 23.3238 720.549 25.3594C719.645 26.9144 719.107 28.6673 718.146 30.1658C717.355 31.438 716.111 32.4559 715.262 33.6999C714.273 35.1701 713.481 36.7816 712.576 38.3083C712.237 38.9021 711.785 39.411 711.389 39.9764C709.891 42.1534 708.307 44.3022 706.894 46.564C706.017 47.9494 705.254 49.4195 704.632 50.918C703.614 53.3495 702.455 54.1976 700.306 53.717C700.476 55.4416 699.345 55.4134 698.327 55.3285L698.355 55.3003Z" fill="white"/>
</svg>
