<svg width="132" height="131" viewBox="0 0 132 131" fill="none" xmlns="http://www.w3.org/2000/svg">
<path d="M75.6729 130.579C107.006 125.837 131.02 98.7892 131.02 66.133C131.02 57.7667 129.444 49.7684 126.572 42.4191L75.6729 130.579Z" fill="white"/>
<path d="M56.0001 130.579C24.6676 125.836 0.653351 98.7891 0.653351 66.133C0.653351 57.7668 2.22952 49.7686 5.10111 42.4194L56.0001 130.579Z" fill="white"/>
<path d="M14.3787 26.1164L117.295 26.1165C105.367 10.8009 86.7524 0.949707 65.8367 0.949707C44.9209 0.949707 26.306 10.8009 14.3787 26.1164Z" fill="white"/>
<path d="M69.168 102.417C87.7241 100.735 102.262 85.1362 102.262 66.1418C102.262 60.6931 101.066 55.5238 98.9218 50.8823L69.168 102.417Z" fill="white"/>
<path d="M62.6527 102.431C44.0261 100.818 29.4106 85.1866 29.4106 66.1418C29.4106 60.6404 30.6301 55.4239 32.8137 50.7478L62.6527 102.431Z" fill="white"/>
<path d="M35.3209 46.2432L96.3521 46.2432C89.8498 36.2917 78.6111 29.7158 65.8365 29.7158C53.062 29.7158 41.8233 36.2917 35.3209 46.2432Z" fill="white"/>
</svg>
